<svg xmlns="http://www.w3.org/2000/svg" viewBox="0 0 553.41 583.98" width="20" height="20"><path d="M245.84 322.92V33.57c0-16.09 7.91-27.62 21.93-32.17 18-5.85 37.74 7.07 39.49 26 .28 3 .25 6 .25 9V324.68c2.36-2.12 3.82-3.31 5.14-4.63q47.19-47.17 94.37-94.35c11.45-11.44 25.78-13.76 38.67-6.4a30.61 30.61 0 0 1 8.4 46.14c-1.59 1.92-3.37 3.68-5.14 5.45q-71.18 71.19-142.4 142.41c-2.94 2.94-5.69 6.1-8.76 8.89-12.5 11.39-30.91 11.27-42.84-.65Q178.39 345 102.07 268.3c-10.16-10.2-12.4-23.05-6.76-35.34a30.53 30.53 0 0 1 29.86-17.78c8.36.53 15.18 4.28 21.07 10.19q46.95 47.08 94 94c1.38 1.38 2.82 2.69 4.23 4Z"/><path d="M276.49 584h-182c-42.11-.05-76-24-89.5-63.82a94.5 94.5 0 0 1-4.57-26.99c-.67-20.8-.39-41.65-.17-62.48.14-13.85 6.8-23.82 19.64-29.17 11.24-4.69 24.56-1.66 33.16 7.18 6.27 6.44 8.8 14.31 8.77 23.2-.07 18.66.39 37.33-.12 56-.62 23 16 34.7 34.41 34.66q181-.37 361.92-.14c17 0 28.82-8.5 32.76-23.7a38.35 38.35 0 0 0 .81-9.41c.08-19.83-.1-39.66.11-59.49a31 31 0 0 1 24.83-29.9 30.47 30.47 0 0 1 34 17.83 35.34 35.34 0 0 1 2.67 13.05c.26 20.82.35 41.66.05 62.48a92 92 0 0 1-74.89 88.93 112.06 112.06 0 0 1-20.37 1.66q-90.77.18-181.51.11Z"/></svg>