<svg xmlns="http://www.w3.org/2000/svg" width="20" height="20" fill="none" viewBox="0 0 20 20"><path fill-rule="evenodd" d="M5.417 4.375c0-1.036.82-1.875 1.833-1.875s1.834.84 1.834 1.875c0 1.036-.821 1.875-1.834 1.875-1.012 0-1.833-.84-1.833-1.875Zm5.5 0c0-1.036.82-1.875 1.833-1.875s1.834.84 1.834 1.875c0 1.036-.821 1.875-1.834 1.875-1.012 0-1.833-.84-1.833-1.875ZM5.417 10c0-1.036.82-1.875 1.833-1.875s1.834.84 1.834 1.875c0 1.036-.821 1.875-1.834 1.875-1.012 0-1.833-.84-1.833-1.875Zm5.5 0c0-1.036.82-1.875 1.833-1.875s1.834.84 1.834 1.875c0 1.036-.821 1.875-1.834 1.875-1.012 0-1.833-.84-1.833-1.875Zm-5.5 5.625c0-1.036.82-1.875 1.833-1.875s1.834.84 1.834 1.875c0 1.035-.821 1.875-1.834 1.875-1.012 0-1.833-.84-1.833-1.875Zm5.5 0c0-1.036.82-1.875 1.833-1.875s1.834.84 1.834 1.875c0 1.035-.821 1.875-1.834 1.875-1.012 0-1.833-.84-1.833-1.875Z" clip-rule="evenodd"/></svg>