<svg xmlns="http://www.w3.org/2000/svg" viewBox="0 0 20 20" width="20" height="20"><path fill-rule="evenodd" d="M6.801 1.667h4.04c.244.003.476.01.718.069.255.061.5.162.723.3.255.155.466.367.706.607l.049.049 2.604 2.605.047.046c.242.241.453.452.61.708a2.5 2.5 0 0 1 .299.722c.058.243.066.475.069.72v7.375c0 .439 0 .817-.025 1.129-.027.329-.086.656-.247.971-.24.471-.623.854-1.093 1.093-.315.16-.643.22-.972.247-.311.025-.69.025-1.128.025H6.798c-.438 0-.817 0-1.128-.025-.33-.027-.657-.086-.972-.247a2.5 2.5 0 0 1-1.093-1.093c-.16-.315-.22-.643-.247-.972a14.907 14.907 0 0 1-.025-1.13V5.135c0-.44 0-.819.025-1.13.027-.33.087-.658.247-.974A2.5 2.5 0 0 1 4.698 1.94c.315-.16.643-.22.972-.247.313-.025.692-.025 1.131-.025Zm-.995 1.686c-.226.019-.31.05-.351.071a.833.833 0 0 0-.365.364c-.02.041-.052.125-.07.352C5 4.376 5 4.686 5 5.167v9.667c0 .48 0 .79.02 1.026.018.226.05.31.07.352.08.157.208.284.365.364.04.02.124.052.35.07.236.02.546.02 1.025.02h6.339c.48 0 .789 0 1.025-.02.225-.018.31-.05.35-.07a.835.835 0 0 0 .365-.364c.021-.042.052-.125.07-.351.02-.236.02-.545.02-1.025V8.333h-1.534c-.438 0-.817 0-1.129-.025-.329-.027-.656-.086-.972-.247a2.5 2.5 0 0 1-1.092-1.093c-.16-.315-.22-.643-.247-.972A14.885 14.885 0 0 1 10 4.866V3.333H6.833c-.48 0-.79 0-1.027.02Zm5.86.327c.052.05.114.113.192.19l2.605 2.605c.078.078.14.14.19.192h-1.156c-.48 0-.79-.001-1.025-.02-.226-.019-.31-.05-.35-.071a.833.833 0 0 1-.365-.364c-.02-.042-.052-.126-.07-.352a14.15 14.15 0 0 1-.02-1.026V3.68Zm-5 7.987c0-.46.373-.834.834-.834h5a.833.833 0 0 1 0 1.667h-5a.833.833 0 0 1-.834-.833Zm0 2.5c0-.46.373-.834.834-.834h5a.833.833 0 0 1 0 1.667h-5a.833.833 0 0 1-.834-.833Z" clip-rule="evenodd"/></svg>