<svg xmlns="http://www.w3.org/2000/svg" width="20" heigt="20" viewBox="0 0 384 384"><path d="M205.5 384h-27c-1.21-.25-2.41-.56-3.63-.74-7.76-1.17-15.61-1.89-23.27-3.53A187.14 187.14 0 0 1 59 330.48C28 300.47 8.89 264.09 2.21 221.32c-.78-5-1.48-10-2.21-15.07v-28.5c.56-4.17 1.08-8.35 1.69-12.51 5.44-36.68 19.82-69.39 44-97.56C75.65 32.8 113.26 11 158.62 2.93 165 1.79 171.37 1 177.75 0h27.75c6.17.83 12.37 1.46 18.49 2.52 29.59 5.13 56.71 16.24 80.87 34.14 41.22 30.56 66.79 71 76.16 121.57 1.24 6.71 2 13.51 3 20.27v27c-.81 6-1.42 12.1-2.47 18.09-7.55 43.11-27.2 79.76-59.32 109.5a187.3 187.3 0 0 1-96.41 48c-6.75 1.14-13.55 1.91-20.32 2.91m10.62-159.76c0-15.88.12-31.75-.09-47.63a30.3 30.3 0 0 0-2-10.9c-4.22-10.4-15.6-16.21-26.63-14.12a24 24 0 0 0-19.48 23.35c-.1 32.75 0 65.5 0 98.25a20 20 0 0 0 .42 4.45c2.73 12 14 20.5 25.46 19.26 13.11-1.42 22.22-11.22 22.3-24.29.1-16.12.02-32.25.02-48.37m0-112.76a24.11 24.11 0 1 0-24.39 24.1 24.19 24.19 0 0 0 24.38-24.1Z"/></svg>