<svg xmlns="http://www.w3.org/2000/svg" width="16" height="16" viewBox="0 0 16 16"><path d="M8 0a8 8 0 1 0 8 8 8 8 0 0 0-8-8Zm.49 12.34a.81.81 0 0 1-.59.24.84.84 0 0 1-.61-.24.8.8 0 0 1-.23-.59.78.78 0 0 1 .23-.59.85.85 0 0 1 .61-.25.82.82 0 0 1 .83.84.81.81 0 0 1-.24.59Zm2.17-5.78a2.53 2.53 0 0 1-.42.68c-.16.18-.38.39-.66.65a5.9 5.9 0 0 0-.8.84 1.59 1.59 0 0 0-.24.9h-1.3a2.14 2.14 0 0 1 .17-.91A2.4 2.4 0 0 1 7.84 8c.17-.18.39-.4.67-.65a5.5 5.5 0 0 0 .77-.78 1.34 1.34 0 0 0 .25-.8 1.22 1.22 0 0 0-.5-1 2.14 2.14 0 0 0-1.36-.37 2.77 2.77 0 0 0-2.33 1l-1-.68a3.54 3.54 0 0 1 1.44-1.05 4.89 4.89 0 0 1 2-.37 3.66 3.66 0 0 1 2.22.62 2 2 0 0 1 .83 1.69 2.37 2.37 0 0 1-.17.95Z"/></svg>