<svg xmlns="http://www.w3.org/2000/svg" viewBox="0 0 20 20" width="20" height="20"><path fill-rule="evenodd" d="M10 1.667c.419 0 .758.339.758.757V3.94a.758.758 0 0 1-1.515 0V2.424c0-.418.339-.757.757-.757ZM4.162 4.16a.758.758 0 0 1 1.071 0l1.071 1.072a.758.758 0 1 1-1.071 1.071L4.162 5.233a.758.758 0 0 1 0-1.072Zm11.785 0a.758.758 0 0 1 0 1.072l-1.071 1.071a.758.758 0 0 1-1.072-1.071l1.072-1.072a.758.758 0 0 1 1.071 0ZM10 6.97a3.03 3.03 0 1 0 0 6.06 3.03 3.03 0 0 0 0-6.06ZM5.455 10a4.545 4.545 0 1 1 9.09 0 4.545 4.545 0 0 1-9.09 0Zm-3.788 0c0-.418.34-.758.758-.758H3.94a.758.758 0 1 1 0 1.515H2.425A.758.758 0 0 1 1.667 10Zm13.636 0c0-.418.34-.758.758-.758h1.515a.758.758 0 1 1 0 1.515h-1.515a.757.757 0 0 1-.758-.757Zm-8.998 3.804a.758.758 0 0 1 0 1.071l-1.072 1.071a.757.757 0 1 1-1.071-1.07l1.071-1.072a.757.757 0 0 1 1.072 0Zm7.5 0a.757.757 0 0 1 1.07 0l1.072 1.071a.757.757 0 1 1-1.072 1.071l-1.07-1.07a.758.758 0 0 1 0-1.072ZM10 15.303c.419 0 .758.34.758.758v1.515a.758.758 0 0 1-1.515 0V16.06c0-.419.339-.758.757-.758Z" clip-rule="evenodd"/></svg>