<svg xmlns="http://www.w3.org/2000/svg" width="20" height="20" fill="none" viewBox="0 0 20 20"><path d="M11.248 14c.238 1.429 1.382 2.201 2.504 2.224 1.035.018 2.299-.647 2.583-2.241h.722c.816 0 1.282-.47 1.283-1.286V10.83c0-.756-.475-1.23-1.23-1.23H8.807V5.009c0-.597-.31-1.03-.836-1.176a1.557 1.557 0 0 0-.403-.047c-.833-.004-1.666 0-2.5-.004a1.284 1.284 0 0 0-1.06.492c-.655.793-1.316 1.58-1.985 2.362a1.39 1.39 0 0 0-.347.945c.004 1.677.02 3.354-.007 5.03-.01.718.36 1.36 1.285 1.378.03.12.054.243.09.365a2.553 2.553 0 0 0 2.592 1.863c1.154-.05 2.153-.917 2.372-2.064.019-.1.023-.177.162-.176 1.003.005 2.006.004 3.008.005.023.004.046.01.069.019ZM5.254 8.829h-1.28c-.263 0-.473-.102-.601-.342-.159-.3-.097-.955.12-1.213.46-.548.927-1.094 1.386-1.644a.684.684 0 0 1 .567-.26c.352.004.705 0 1.057 0 .44.005.69.255.691.696.002.683.002 1.365 0 2.049 0 .46-.255.71-.721.713-.406.004-.812.001-1.219.001Zm1.418 4.842a1.17 1.17 0 1 1-1.153-1.177 1.183 1.183 0 0 1 1.153 1.178v-.001Zm7.129-1.177a1.172 1.172 0 1 1-1.184 1.169 1.178 1.178 0 0 1 1.184-1.168v-.001Z"/><path d="M10.926 8.966h4.547a.387.387 0 0 0 .252-.163c.028-.052.053-.106.073-.162V4.094c0-.003-.006-.004-.007-.008-.067-.217-.19-.306-.418-.306h-4.397a.38.38 0 0 0-.359.271l-.016.054v4.539c.024.061.052.121.085.179a.38.38 0 0 0 .24.143Zm1.193-4.86h2.161V6.2a.2.2 0 0 1-.014.073c-.04.102-.155.13-.253.06-.25-.174-.499-.348-.747-.524-.068-.047-.069-.047-.137 0l-.735.52a.177.177 0 0 1-.151.039c-.083-.02-.125-.084-.125-.19V4.107Z"/></svg>