<svg xmlns="http://www.w3.org/2000/svg" viewBox="0 0 20 20" width="20" height="20" fill="none"><path d="M6.564 16.358v1.41c0 .371-.191.565-.56.565H3.665c-.38 0-.568-.19-.568-.573v-1.412h-.5c-.306-.005-.512-.208-.513-.514-.002-.601 0-1.203 0-1.805 0-.396.129-.553.524-.625V3.254c0-.434.175-.608.612-.608h1.488a.25.25 0 0 0 .239-.12c.396-.561.944-.856 1.636-.857 2.278-.003 4.556-.003 6.835 0 .692 0 1.24.295 1.635.858a.247.247 0 0 0 .24.119c.512-.004 1.024 0 1.537 0 .37 0 .562.191.562.562v10.196c.044.008.083.013.123.022.243.057.398.24.399.489.003.645.003 1.29 0 1.936 0 .287-.209.489-.497.496-.163.004-.326 0-.515 0v1.446c0 .338-.2.539-.536.539-.796.002-1.592.002-2.388 0-.349 0-.542-.199-.543-.549v-1.425h-6.87ZM5.586 5.562h8.828V3.713c0-.67-.403-1.069-1.08-1.07H8.037c-.496 0-.992-.004-1.488 0-.505.008-.941.392-.957.89-.022.672-.005 1.345-.005 2.029Zm8.817 2.998V6.561h-8.81v2.007c.335-.012.66-.032.984-.032 2.202-.003 4.403-.003 6.604 0 .406 0 .813.017 1.221.026V8.56Zm-7.839 4.85v-2.389c0-.34.192-.533.534-.533h5.805c.333 0 .53.194.53.522v2.4h.981v-3.322c0-.392-.188-.575-.583-.575h-7.67c-.393 0-.579.186-.579.579v3.157c0 .052.005.104.008.163l.974-.001Zm10.362.995H3.077v.956h13.848v-.956ZM4.59 13.411V3.633h-.996v9.778h.996Zm10.817-9.782v9.776h.994V3.628l-.994.001Zm-6.892 9.782v-1.933h-.961v1.933h.96Zm1.962 0v-1.933h-.96v1.933h.96Zm1.963 0v-1.933h-.96v1.933h.96Zm-8.355 3.934H5.57v-.989H4.085v.99Zm10.335 0h1.49v-.986h-1.49v.986Z"/><path d="M9.992 4.597h-.93c-.31 0-.537-.206-.536-.49.001-.283.223-.485.538-.486h1.861c.32 0 .54.198.544.481.004.29-.219.494-.547.495h-.93Z"/></svg>